<svg width="16" height="16" viewBox="0 0 16 16" fill="none" xmlns="http://www.w3.org/2000/svg">
<g clip-path="url(#clip0_2376_10886)">
<path d="M6 10L10 6" stroke="black" stroke-width="1.33333" stroke-linecap="round" stroke-linejoin="round"/>
<path d="M7.33301 4.00004L7.64167 3.64271C8.26688 3.01759 9.1148 2.66644 9.99891 2.6665C10.883 2.66657 11.7309 3.01784 12.356 3.64304C12.9811 4.26824 13.3323 5.11617 13.3322 6.00028C13.3321 6.88439 12.9809 7.73226 12.3557 8.35737L11.9997 8.66671" stroke="black" stroke-width="1.33333" stroke-linecap="round" stroke-linejoin="round"/>
<path d="M8.66709 12.0002L8.40242 12.3562C7.76992 12.9816 6.91628 13.3324 6.02675 13.3324C5.13723 13.3324 4.28359 12.9816 3.65109 12.3562C3.33932 12.0479 3.09182 11.6808 2.92289 11.2763C2.75397 10.8717 2.66699 10.4376 2.66699 9.99916C2.66699 9.56073 2.75397 9.12665 2.92289 8.72207C3.09182 8.31748 3.33932 7.95043 3.65109 7.64216L4.00042 7.3335" stroke="black" stroke-width="1.33333" stroke-linecap="round" stroke-linejoin="round"/>
</g>
<defs>
<clipPath id="clip0_2376_10886">
<rect width="16" height="16" fill="white"/>
</clipPath>
</defs>
</svg>
