<svg width="24" height="24" viewBox="0 0 24 24" fill="none" xmlns="http://www.w3.org/2000/svg">
<path d="M20.2465 10.6464H18.6039C18.3828 10.6464 18.2039 10.8253 18.2039 11.0464C18.2039 11.2675 18.3828 11.4464 18.6039 11.4464H20.2465C20.4676 11.4464 20.6465 11.2675 20.6465 11.0464C20.6465 10.8253 20.4676 10.6464 20.2465 10.6464ZM16.6695 6.77686C16.7719 6.77686 16.8742 6.73779 16.9523 6.65967L18.1141 5.49795C18.2703 5.3417 18.2703 5.08857 18.1141 4.93232C17.9578 4.77607 17.7047 4.77607 17.5484 4.93232L16.3867 6.09404C16.2305 6.25029 16.2305 6.50342 16.3867 6.65967C16.4648 6.73779 16.5672 6.77686 16.6695 6.77686ZM12 4.84287C12.2211 4.84287 12.4 4.66396 12.4 4.44287V2.7999C12.4 2.57881 12.2211 2.3999 12 2.3999C11.7789 2.3999 11.6 2.57881 11.6 2.7999V4.44287C11.6 4.66396 11.7789 4.84287 12 4.84287ZM7.04766 6.65967C7.12578 6.73779 7.22813 6.77686 7.33047 6.77686C7.43281 6.77686 7.53516 6.73779 7.61328 6.65967C7.76953 6.50342 7.76953 6.25029 7.61328 6.09404L6.45156 4.93232C6.29531 4.77607 6.04219 4.77607 5.88594 4.93232C5.72969 5.08857 5.72969 5.3417 5.88594 5.49795L7.04766 6.65967ZM5.39609 10.6464H3.75352C3.53242 10.6464 3.35352 10.8253 3.35352 11.0464C3.35352 11.2675 3.53242 11.4464 3.75352 11.4464H5.39609C5.61719 11.4464 5.79609 11.2675 5.79609 11.0464C5.79609 10.8253 5.61719 10.6464 5.39609 10.6464ZM7.04766 15.4331L5.88594 16.5948C5.72969 16.7511 5.72969 17.0042 5.88594 17.1604C5.96406 17.2386 6.06641 17.2776 6.16875 17.2776C6.27109 17.2776 6.37344 17.2386 6.45156 17.1604L7.61328 15.9987C7.76953 15.8425 7.76953 15.5894 7.61328 15.4331C7.45703 15.2769 7.20391 15.2769 7.04766 15.4331ZM16.9523 15.4331C16.7961 15.2769 16.543 15.2769 16.3867 15.4331C16.2305 15.5894 16.2305 15.8425 16.3867 15.9987L17.5484 17.1604C17.6266 17.2386 17.7289 17.2776 17.8313 17.2776C17.9336 17.2776 18.0359 17.2386 18.1141 17.1604C18.2703 17.0042 18.2703 16.7511 18.1141 16.5948L16.9523 15.4331ZM13.8656 19.814H13.796V19.6279H10.172V19.814H10.1344C9.91328 19.814 9.73438 19.9929 9.73438 20.214C9.73438 20.4351 9.91328 20.614 10.1344 20.614H10.172V20.7599C10.172 21.2239 10.548 21.5999 11.012 21.5999H12.956C13.42 21.5999 13.796 21.2239 13.796 20.7599V20.614H13.8656C14.0867 20.614 14.2656 20.4351 14.2656 20.214C14.2656 19.9929 14.0867 19.814 13.8656 19.814Z" fill="#3B4652"/>
<path d="M15.6719 7.23197C14.6239 6.22399 13.236 5.70399 11.784 5.756C8.93595 5.87199 6.61195 8.37599 6.70795 11.228C6.75595 12.604 7.32394 13.892 8.31195 14.852C8.88395 15.404 9.35595 16.096 9.67594 16.856C9.94394 17.484 10.112 18.16 10.1559 18.828H13.812C13.912 17.336 14.5799 15.896 15.6319 14.904C16.7039 13.896 17.2959 12.524 17.2959 11.044C17.2959 9.59198 16.7199 8.23598 15.6719 7.23197ZM14.5319 10.86L12.0079 13.384C11.9319 13.46 11.8279 13.5 11.7239 13.5C11.6239 13.5 11.5199 13.46 11.4439 13.384L10.2679 12.208C10.112 12.052 10.112 11.796 10.2679 11.64C10.4239 11.484 10.6759 11.484 10.8319 11.64L11.7239 12.536L13.9679 10.292C14.1239 10.136 14.3759 10.136 14.5319 10.292C14.6879 10.448 14.6879 10.704 14.5319 10.86Z" fill="#2984FF"/>
</svg>
